<?xml version="1.0" encoding="UTF-8" standalone="no"?>
<!-- Created with Inkscape (http://www.inkscape.org/) -->

<svg
   width="137mm"
   height="20mm"
   viewBox="0 0 137 20"
   version="1.1"
   id="svg2313"
   xml:space="preserve"
   inkscape:version="1.2.1 (9c6d41e, 2022-07-14)"
   sodipodi:docname="django-stubs logo.svg"
   inkscape:export-filename="django-stubs logo.png"
   inkscape:export-xdpi="300"
   inkscape:export-ydpi="300"
   xmlns:inkscape="http://www.inkscape.org/namespaces/inkscape"
   xmlns:sodipodi="http://sodipodi.sourceforge.net/DTD/sodipodi-0.dtd"
   xmlns="http://www.w3.org/2000/svg"
   xmlns:svg="http://www.w3.org/2000/svg"><sodipodi:namedview
     id="namedview2315"
     pagecolor="#ffffff"
     bordercolor="#000000"
     borderopacity="0.25"
     inkscape:showpageshadow="2"
     inkscape:pageopacity="1"
     inkscape:pagecheckerboard="0"
     inkscape:deskcolor="#d1d1d1"
     inkscape:document-units="mm"
     showgrid="false"
     inkscape:zoom="1"
     inkscape:cx="385.5"
     inkscape:cy="37.5"
     inkscape:window-width="1728"
     inkscape:window-height="1051"
     inkscape:window-x="0"
     inkscape:window-y="38"
     inkscape:window-maximized="0"
     inkscape:current-layer="layer1" /><defs
     id="defs2310" /><g
     inkscape:label="Layer 1"
     inkscape:groupmode="layer"
     id="layer1"><path
       id="path16399-9"
       style="fill:#505050;fill-opacity:1;stroke-width:0.264583"
       inkscape:label="ticket"
       d="M 1.984375 5.1288859 A 1.9844143 1.9844143 0 0 1 0.016019694 7.1122274 L 0.016019694 12.977502 A 1.9844143 1.9844143 0 0 1 1.984375 14.960844 L 13.762467 14.960844 A 1.9844143 1.9844143 0 0 1 15.746842 12.976469 L 15.746842 7.1132609 A 1.9844143 1.9844143 0 0 1 13.762467 5.1288859 L 1.984375 5.1288859 z " /><path
       d="m 8.4802943,7.7688882 a 0.56466196,0.56466196 0 0 1 0.805587,0.790528 l -3.004003,3.7568818 a 0.56466196,0.56466196 0 0 1 -0.813113,0.01508 l -1.992126,-1.992126 a 0.56466196,0.56466196 0 1 1 0.798054,-0.7980568 l 1.576535,1.5757828 2.61401,-3.3315048 a 0.18972642,0.18972642 0 0 1 0.01508,-0.0165 z m -0.69265,3.8698158 0.69265,0.692652 a 0.56466196,0.56466196 0 0 0 0.812362,-0.01508 L 12.298165,8.5593942 a 0.56466196,0.56466196 0 1 0 -0.821397,-0.773964 l -2.6147617,3.3315048 -0.365148,-0.3659 -0.709968,0.887647 z"
       id="path16407-3"
       style="fill:#ffffff;stroke-width:0.264583"
       inkscape:label="checks" /><path
       style="fill:#2a6db2;fill-opacity:1;stroke-width:0.999998"
       d="M 60.863806,19.971748 C 60.114793,19.91903 59.668194,19.83697 58.894426,19.609974 L 58.379003,19.458759 V 18.052684 16.64661 l 0.559887,0.242625 c 0.89307,0.387021 1.683661,0.548562 2.67484,0.546571 1.127747,-0.0024 1.672117,-0.164402 2.163721,-0.644398 0.409438,-0.399781 0.615991,-0.902404 0.685339,-1.667676 l 0.04804,-0.530602 -0.524363,0.175881 c -0.703315,0.235903 -1.66695,0.288412 -2.475557,0.134892 -1.295245,-0.245899 -2.322489,-0.989922 -2.848319,-2.063032 -0.424883,-0.867073 -0.528418,-1.344876 -0.525637,-2.425741 0.0024,-1.0589229 0.120777,-1.6358511 0.494586,-2.417156 0.708459,-1.4807349 2.147817,-2.4135045 4.404004,-2.8540017 0.479948,-0.093708 1.004021,-0.125436 2.097243,-0.1269756 1.408203,-0.00161 2.039429,0.052396 3.359131,0.2892178 l 0.62207,0.1116438 v 1.2059865 c 0,1.1149141 -0.0094,1.2032538 -0.124413,1.1698654 -0.22423,-0.065132 -1.588106,-0.2753127 -1.612152,-0.2484859 -0.0129,0.014429 0.0073,1.3058693 0.04401,2.8699057 0.101366,4.26921 -0.02934,5.748058 -0.615968,6.967643 -0.285622,0.593832 -0.935647,1.33131 -1.508706,1.711681 -1.04763,0.695375 -2.614036,1.005374 -4.433023,0.877294 z m 3.362582,-7.533609 0.266598,-0.07464 v -1.264976 c 0,-0.695738 -0.0212,-1.8020352 -0.04708,-2.4584442 l -0.04708,-1.1934679 -0.646083,0.036194 c -0.907241,0.050864 -1.38984,0.2440847 -1.897993,0.7599192 -0.528603,0.5366075 -0.667597,0.9296903 -0.667597,1.8880129 0,1.050991 0.251146,1.643291 0.889547,2.097871 0.46181,0.328837 1.397594,0.420038 2.14967,0.209503 z m -34.4961,6.069359 -1.384608,-0.669839 0.602586,-0.334351 c 0.788324,-0.437409 1.489527,-1.121959 1.773774,-1.731631 0.513414,-1.101226 0.5693,-1.74664 0.570005,-6.5828952 l 5.83e-4,-3.9989751 h 1.532968 1.532967 l -0.02765,4.8165463 c -0.02642,4.60323 -0.03436,4.846194 -0.179124,5.486199 -0.360918,1.595627 -1.216661,2.740617 -2.574787,3.445085 l -0.462104,0.239699 z m 44.460044,-3.36396 c -2.05514,-0.225569 -3.489839,-1.45673 -4.018886,-3.448736 -0.213017,-0.802086 -0.212542,-2.3148393 8.07e-4,-3.1280816 0.472934,-1.8011646 1.625815,-2.9996706 3.327983,-3.459659 0.800281,-0.2162746 2.315541,-0.2160247 3.108429,4.917e-4 1.078971,0.2946509 1.9471,0.8951493 2.503045,1.7314135 1.158153,1.7421103 1.163449,4.5310524 0.01193,6.2993444 -0.951019,1.460438 -2.853155,2.233561 -4.933526,2.005227 z m 1.448749,-2.528131 c 0.785045,-0.327434 1.221963,-1.253957 1.221963,-2.591288 0,-1.6980574 -0.693424,-2.7015213 -1.866829,-2.7015213 -0.806632,0 -1.455133,0.5540756 -1.737048,1.4841367 -0.184941,0.6101312 -0.16865,1.8892056 0.03233,2.5342486 0.182991,0.587464 0.54919,1.057247 0.974831,1.25058 0.357365,0.162315 1.015426,0.173729 1.37479,0.02386 z m 16.473488,2.484038 c -0.492038,-0.0719 -1.305111,-0.266986 -1.652908,-0.396549 l -0.373237,-0.139043 v -1.24663 c 0,-0.96989 0.01975,-1.238302 0.08886,-1.209138 1.307215,0.551327 1.855543,0.688693 2.748452,0.688548 0.761467,-1.45e-4 1.102468,-0.115062 1.277301,-0.43051 0.08645,-0.155995 0.08665,-0.211502 0.0016,-0.391011 -0.08183,-0.172391 -0.343338,-0.330304 -1.485628,-0.89714 -1.53945,-0.763926 -2.023525,-1.1242249 -2.383429,-1.77404 -0.201571,-0.3639264 -0.211438,-0.4215781 -0.211438,-1.2348607 0,-0.7731875 0.01757,-0.8905545 0.187344,-1.2526592 0.363314,-0.7748561 1.001803,-1.2980905 1.952371,-1.5999479 1.186044,-0.3766385 2.709986,-0.3569376 3.985127,0.051509 L 96.91151,5.480838 v 1.2128463 c 0,0.9428699 -0.01975,1.2045033 -0.08887,1.1753711 -0.771301,-0.3252985 -1.088006,-0.4322831 -1.530237,-0.5168905 -1.438439,-0.2752241 -2.496604,0.084446 -2.219139,0.7542766 0.108379,0.2616656 0.249058,0.3506178 1.301403,0.8229395 1.520153,0.6822845 2.273995,1.222173 2.600696,1.862565 0.233226,0.457159 0.327773,1.201061 0.228809,1.800334 -0.206247,1.248879 -0.991082,2.033964 -2.379399,2.380173 -0.425874,0.106203 -2.265038,0.192309 -2.712033,0.126976 z m 39.740901,0 c -0.49203,-0.0719 -1.30511,-0.266986 -1.65291,-0.396549 l -0.37323,-0.139043 v -1.24663 c 0,-0.96989 0.0198,-1.238302 0.0889,-1.209138 1.30722,0.551327 1.85554,0.688693 2.74845,0.688548 0.76147,-1.45e-4 1.10247,-0.115062 1.2773,-0.43051 0.0865,-0.155995 0.0867,-0.211502 0.002,-0.391011 -0.0819,-0.172391 -0.34335,-0.330304 -1.48563,-0.89714 -1.53948,-0.763926 -2.02355,-1.1242249 -2.38346,-1.77404 -0.20157,-0.3639264 -0.21143,-0.4215781 -0.21143,-1.2348607 0,-0.7731875 0.0176,-0.8905545 0.18734,-1.2526592 0.36332,-0.7748561 1.0018,-1.2980905 1.95237,-1.5999479 1.18604,-0.3766385 2.70999,-0.3569376 3.98513,0.051509 l 0.66452,0.2128648 v 1.2128463 c 0,0.9428699 -0.0197,1.2045033 -0.0889,1.1753711 -0.77129,-0.3252985 -1.088,-0.4322831 -1.53023,-0.5168905 -1.43844,-0.2752241 -2.4966,0.084446 -2.21914,0.7542766 0.10837,0.2616656 0.24905,0.3506178 1.3014,0.8229395 1.52015,0.6822845 2.274,1.222173 2.60069,1.862565 0.23323,0.457159 0.32778,1.201061 0.22881,1.800334 -0.20624,1.248879 -0.99107,2.033964 -2.37939,2.380173 -0.42588,0.106203 -2.26504,0.192309 -2.71204,0.126976 z M 23.6319,14.995507 c -3.133956,-0.24111 -4.780521,-1.916685 -4.780521,-4.864742 0,-1.0027465 0.151445,-1.7020153 0.546598,-2.5238021 0.585319,-1.2172718 1.660618,-2.0770981 3.079138,-2.4621361 0.488146,-0.1324974 2.287186,-0.1855302 2.754848,-0.081206 l 0.231052,0.051509 V 2.557561 -2.49576e-7 h 1.528496 1.528496 V 7.3110142 14.622021 l -0.657608,0.115351 c -1.354753,0.237636 -3.107047,0.34454 -4.230499,0.258103 z M 25.231963,12.5409 25.463015,12.50592 V 10.05467 7.6034322 L 25.26751,7.522694 C 25.159982,7.478278 24.768082,7.440182 24.396622,7.438014 23.816588,7.434794 23.666038,7.459698 23.330229,7.6157815 22.765705,7.8781403 22.512258,8.1224024 22.248358,8.6584618 22.02084,9.1206186 22.015012,9.1555788 22.015012,10.05816 c 0,0.820908 0.01901,0.96777 0.168011,1.297309 0.187067,0.413751 0.668932,0.89955 1.050332,1.058907 0.475297,0.198597 1.213515,0.245318 1.998608,0.126508 z m 14.058611,2.491228 c -0.0782,-0.01806 -0.31814,-0.06779 -0.533196,-0.110427 -1.038648,-0.205924 -1.738179,-0.780208 -1.999886,-1.641824 -0.218372,-0.718937 -0.170389,-1.845443 0.102721,-2.411626 0.509245,-1.055707 1.856258,-1.7229257 4.074239,-2.0181086 0.425304,-0.056588 0.813269,-0.1035425 0.862145,-0.1043002 0.06177,-8.061e-4 0.08887,-0.1412757 0.08887,-0.4601497 0,-0.8765608 -0.169277,-1.0040604 -1.309877,-0.9865762 -1.019184,0.015638 -1.86104,0.2381518 -3.222292,0.8517492 -0.06912,0.031115 -0.08887,-0.2210708 -0.08887,-1.1354131 V 5.8399765 l 0.550969,-0.2114138 c 1.234094,-0.4735469 2.184525,-0.6519351 3.465777,-0.6505083 1.347233,0.00161 2.110908,0.2201841 2.689779,0.7702614 0.6683,0.6350555 0.687131,0.7793057 0.687131,5.2636372 V 14.7654 l -1.155258,0.124791 c -1.093409,0.118101 -3.905784,0.212873 -4.212252,0.141937 z m 2.544687,-2.20405 c 0.10659,-0.04087 0.121295,-0.171125 0.121295,-1.074142 v -1.027598 l -0.337691,0.04683 c -1.316412,0.18258 -1.989107,0.445439 -2.182412,0.852797 -0.183868,0.387473 -0.141203,0.707362 0.145175,1.088467 0.01006,0.01338 0.140634,0.07029 0.290173,0.126516 0.200629,0.07537 0.477665,0.09321 1.057026,0.06795 0.431827,-0.01886 0.839722,-0.05522 0.906434,-0.0808 z m 68.553079,2.16568 c -0.77926,-0.06425 -1.53088,-0.264003 -2.05055,-0.544999 -0.40079,-0.216726 -0.90267,-0.732286 -1.1117,-1.142031 -0.3591,-0.703896 -0.38103,-0.95027 -0.41382,-4.651144 l -0.0307,-3.4657773 h 1.53029 1.53028 l 0.0219,3.1458635 c 0.0213,3.0724448 0.0255,3.1538038 0.17901,3.4863168 0.12899,0.279407 0.21716,0.366989 0.49158,0.488379 0.29294,0.129579 0.43203,0.143637 1.12248,0.113417 0.43345,-0.01894 0.84408,-0.0582 0.91251,-0.0872 0.11612,-0.04917 0.12441,-0.289073 0.12441,-3.5997338 V 5.1898067 h 1.5285 1.5285 v 4.6921338 c 0,2.5806635 -0.024,4.6923355 -0.0534,4.6925935 -0.0293,2.9e-4 -0.40609,0.06126 -0.83726,0.135463 -1.51023,0.260046 -3.34629,0.37655 -4.47202,0.283761 z m 10.16136,0.0056 c -0.4301,-0.02789 -1.09394,-0.09094 -1.47517,-0.140107 l -0.69316,-0.0894 V 7.3850134 1.367861e-4 h 1.5285 1.52849 V 2.6744121 5.3486875 l 0.15997,-0.046592 c 0.90455,-0.2633423 1.27443,-0.3254839 1.93728,-0.3254839 2.63934,0 4.32811,1.6975012 4.49119,4.5143984 0.0737,1.272239 -0.21898,2.459524 -0.82579,3.350385 -1.09533,1.608073 -3.43341,2.366647 -6.65131,2.157981 z m 2.75013,-2.563825 c 0.66068,-0.191318 1.03293,-0.49519 1.33771,-1.092013 0.24208,-0.474023 0.24883,-0.509595 0.24883,-1.312068 0,-1.3013474 -0.33555,-1.9992863 -1.15408,-2.4004622 -0.35184,-0.1724473 -0.49563,-0.200983 -1.01425,-0.2013135 -0.33236,-2.096e-4 -0.75625,0.043771 -0.94198,0.097731 l -0.3377,0.098102 v 2.4740667 2.474066 l 0.15997,0.03144 c 0.30367,0.05973 1.22781,-0.0324 1.7015,-0.169553 z m -21.10297,2.492445 c -0.71066,-0.12866 -1.17297,-0.353278 -1.59344,-0.774195 -0.657376,-0.658061 -0.65769,-0.659827 -0.68949,-3.791906 L 99.88668,7.678122 h -0.776735 -0.77675 V 6.5406802 5.4031955 h 0.853111 0.853124 V 4.0168862 2.6305769 h 1.42032 1.42032 l 0.0193,1.3685349 0.0193,1.368535 1.08417,0.019588 1.08416,0.019588 v 1.1356388 1.1356307 h -1.10194 -1.10193 v 1.8031638 c 0,1.8840149 0.0564,2.4500289 0.27366,2.7467839 0.21196,0.289491 0.46784,0.371141 1.15627,0.368964 l 0.63175,-0.0016 v 1.123668 1.123661 l -0.23105,0.04119 c -0.44798,0.0798 -2.15508,0.109959 -2.51692,0.04442 z m -55.033267,-4.637198 0.01829,-4.638803 0.62013,-0.1556886 c 1.480392,-0.371673 2.353819,-0.4775613 3.965359,-0.4807534 1.658292,-0.00322 2.052089,0.058039 2.797215,0.4356203 0.464737,0.2354998 1.044377,0.7894786 1.243751,1.1886877 0.336127,0.6730306 0.364235,1.0412132 0.365557,4.788421 l 0.0012,3.501326 h -1.528497 -1.528496 v -3.208698 c 0,-2.2018247 -0.0255,-3.2938459 -0.08129,-3.4800209 -0.09602,-0.3204942 -0.358002,-0.583111 -0.69357,-0.6952626 -0.302501,-0.1011001 -1.197304,-0.093289 -1.713393,0.014993 l -0.39101,0.082012 -0.01842,3.6435125 -0.01842,3.643505 H 48.673647 47.145282 Z M 31.292628,2.0617256 V 0.49768107 h 1.528497 1.528496 V 2.0617256 3.6257702 h -1.528496 -1.528497 z"
       id="path2927"
       sodipodi:nodetypes="cscccscsccssscsscscscccssccccscccsssccccssscccssscccscsssccccssscscccscsccscssscsscsccssssscccscscsscssscsscscsssssscccsssccccccccscccccccccssssccccssccsccscscsscsccscssscccccssscccccsccscccscccccscccccccssssccssssssccccsscsscccccccccccccccccccsccccccccccscssccccssscccccccccccccccc"
       inkscape:label="django stubs" /><path
       style="fill:#505050;fill-opacity:1;stroke-width:0.999998"
       d="M 81.697463,8.993385 V 7.7492543 h 3.09254 3.092541 v 1.2441307 1.244123 h -3.092541 -3.09254 z"
       id="path3753"
       sodipodi:nodetypes="ccccccccc"
       inkscape:label="hyphen" /></g></svg>
